{"title":"The Four Musketeers [1974] BRRip XviD - CODY","uid":7254523,"size":737424727,"categoryP":"video","categoryS":"movies","magnet":"?xt=urn:btih:d4d802b6a3b3d7f4a00156cbfd2de86b9f092bd4&amp;dn=The+Four+Musketeers+%5B1974%5D+BRRip+XviD+-+CODY&amp;tr=udp%3A%2F%2Ftracker.openbittorrent.com%3A80&amp;tr=udp%3A%2F%2Fopen.demonii.com%3A1337&amp;tr=udp%3A%2F%2Ftracker.coppersurfer.tk%3A6969&amp;tr=udp%3A%2F%2Fexodus.desync.com%3A6969","seeders":2,"leechers":1,"uploader":"CODYBOSS1969","files":5,"time":1336548053,"description":"General\nComplete name                            : The Four Musketeers [1974] BRRip XviD - CODY.avi\nFormat                                   : AVI\nFormat/Info                              : Audio Video Interleave\nFile size                                : 703 MiB\nDuration                                 : 1h 46mn\nOverall bit rate                         : 922 Kbps\nWriting application                      : VirtualDubMod 1.5.10.3 | www.virtualdub-fr.org || (build 2550/release)\nWriting library                          : VirtualDubMod build 2550/release\n\nVideo\nID                                       : 0\nFormat                                   : MPEG-4 Visual\nFormat profile                           : Advanced Simple@L5\nFormat settings, BVOP                    : 4\nFormat settings, QPel                    : No\nFormat settings, GMC                     : No warppoints\nFormat settings, Matrix                  : Default (H.263)\nCodec ID                                 : XVID\nCodec ID/Hint                            : XviD\nDuration                                 : 1h 46mn\nBit rate                                 : 784 Kbps\nWidth                                    : 720 pixels\nHeight                                   : 400 pixels\nDisplay aspect ratio                     : 16:9\nFrame rate                               : 24.000 fps\nColor space                              : YUV\nChroma subsampling                       : 4:2:0\nBit depth                                : 8 bits\nScan type                                : Progressive\nCompression mode                         : Lossy\nBits/(Pixel*Frame)                       : 0.113\nStream size                              : 598 MiB (85%)\nWriting library                          : XviD 1.2.1 (UTC 2008-12-04)\n\nAudio\nID                                       : 1\nFormat                                   : MPEG Audio\nFormat version                           : Version 1\nFormat profile                           : Layer 3\nCodec ID                                 : 55\nCodec ID/Hint                            : MP3\nDuration                                 : 1h 46mn\nBit rate mode                            : Constant\nBit rate                                 : 128 Kbps\nChannel(s)                               : 2 channels\nSampling rate                            : 48.0 KHz\nCompression mode                         : Lossy\nStream size                              : 97.6 MiB (14%)\nAlignment                                : Aligned on interleaves\nInterleave, duration                     : 42 ms (1.00 video frame)\nInterleave, preload duration             : 504 ms\nWriting library                          : LAME3.99.1 \nEncoding settings                        : -m s -V 4 -q 2 -lowpass 17 -b 128\n\n\n\n\n\nIMDB link:                                &lt;a href=&quot; http://www.imdb.com/title/tt0073012/&quot; rel=&quot;nofollow&quot; target=&quot;_NEW&quot;&gt; http://www.imdb.com/title/tt0073012/&lt;/a&gt;\n\n\n\n\n\nSubtitles included                       : Romanian\n\n\n\n\n\nPlease seed at least 1,5:1 . This way this torrent has a chance to survive !\n\n\n\n\nThanks. Enjoy !!","torrent":{"xt":"urn:btih:d4d802b6a3b3d7f4a00156cbfd2de86b9f092bd4","amp;dn":"The+Four+Musketeers+%5B1974%5D+BRRip+XviD+-+CODY","amp;tr":["udp%3A%2F%2Ftracker.openbittorrent.com%3A80","udp%3A%2F%2Fopen.demonii.com%3A1337","udp%3A%2F%2Ftracker.coppersurfer.tk%3A6969","udp%3A%2F%2Fexodus.desync.com%3A6969"],"infoHash":"d4d802b6a3b3d7f4a00156cbfd2de86b9f092bd4","infoHashBuffer":{"type":"Buffer","data":[212,216,2,182,163,179,215,244,160,1,86,203,253,45,232,107,159,9,43,212]},"announce":[],"urlList":[]}}